<?xml version="1.0" encoding="UTF-8"?>
<svg id="Capa_1" data-name="Capa 1" xmlns="http://www.w3.org/2000/svg" viewBox="0 0 281.92 30">
  <defs>
    <style>
      .cls-1 {
        fill: #fff;
      }

      .cls-2 {
        fill: none;
        stroke: #856ffc;
      }

      .cls-3 {
        fill: #856ffc;
      }
    </style>
  </defs>
  <polygon class="cls-1" points="270.28 28 270.28 2.97 281.75 2.97 281.75 8.19 275.84 8.19 275.84 12.7 281.4 12.7 281.4 17.92 275.84 17.92 275.84 22.79 281.92 22.79 281.92 28 270.28 28 270.28 28"/>
  <path class="cls-1" d="M262.68,7.49h-2.09v6.26h2.09l.35-.35V7.84l-.35-.35Zm-2.09,20.51h-5.56V2.97h10.85c1.53,.56,2.71,1.53,2.71,4.17v5.32c0,2.4-.97,3.44-2.33,4.03l2.99,7.99v3.51h-4.87l-3.2-9.73h-.59v9.73h0Z"/>
  <path class="cls-1" d="M253.28,7.14V23.83c0,2.64-1.18,3.61-2.71,4.17h-8.13c-1.53-.56-2.71-1.53-2.71-4.17V7.14c0-2.64,1.18-3.62,2.71-4.17h8.13c1.53,.56,2.71,1.53,2.71,4.17Zm-5.56,15.99V7.84l-.35-.35h-1.74l-.35,.35v15.29l.35,.35h1.74l.35-.35Z"/>
  <polygon class="cls-1" points="238.67 8.19 234.67 8.19 234.67 28 229.11 28 229.11 8.19 225.11 8.19 225.11 2.97 238.67 2.97 238.67 8.19 238.67 8.19"/>
  <path class="cls-1" d="M222.31,14.3c1.7,.69,1.95,1.95,1.95,3.82v5.7c0,2.64-1.18,3.62-2.71,4.17h-8.13c-1.53-.56-2.71-1.53-2.71-4.17v-4.94h5.56v4.24l.35,.35h1.74l.35-.35v-3.82l-.31-.49-5.74-2.57c-1.7-.76-1.95-1.95-1.95-3.82V7.14c0-2.64,1.18-3.62,2.71-4.17h8.13c1.53,.56,2.71,1.53,2.71,4.17v4.66h-5.56v-3.96l-.35-.35h-1.74l-.35,.35v3.65l.45,.56,5.6,2.26h0Z"/>
  <path class="cls-2" d="M196.5,3V29"/>
  <polygon class="cls-1" points="182 8.28 182 4.22 164.22 4.22 164.22 25.78 182 25.78 182 21.72 168.33 21.72 168.33 16.74 177.42 16.74 177.42 12.98 168.33 12.98 168.33 8.28 182 8.28 182 8.28"/>
  <polygon class="cls-1" points="149.06 4.22 144.92 4.22 144.92 25.78 161.99 25.78 161.99 21.72 149.06 21.72 149.06 4.22"/>
  <polygon class="cls-1" points="125.15 25.78 129.26 25.78 129.26 16.74 138.02 16.74 138.02 12.98 129.26 12.98 129.26 8.28 142.45 8.28 142.45 4.22 125.15 4.22 125.15 25.78 125.15 25.78"/>
  <polygon class="cls-1" points="105.38 25.78 109.49 25.78 109.49 16.74 118.24 16.74 118.24 12.98 109.49 12.98 109.49 8.28 122.68 8.28 122.68 4.22 105.38 4.22 105.38 25.78 105.38 25.78"/>
  <path class="cls-1" d="M97.34,18.51c0,2.63-.89,3.21-2.89,3.21h-6.7c-2,0-2.92-.58-2.92-3.21V4.22h-4.14v14.14c0,4.55,2.11,7.42,7.06,7.42h6.7c4.91,0,7.06-2.87,7.06-7.42V4.22h-4.17v14.29h0Z"/>
  <polygon class="cls-1" points="72.65 13.07 61.36 13.07 61.36 4.22 57.22 4.22 57.22 25.78 61.36 25.78 61.36 16.83 72.65 16.83 72.65 25.78 76.82 25.78 76.82 4.22 72.65 4.22 72.65 13.07"/>
  <path class="cls-1" d="M47.63,13.41l-6.64-.52c-2-.15-2.77-.58-2.77-2.26,0-1.8,.8-2.35,3.1-2.35h5.39c1.91,0,2.71,.67,2.89,2.44,.03,.49,.27,.77,.74,.77h2.68c.48,0,.74-.27,.72-.79-.21-4.31-2.32-6.48-7.03-6.48h-5.45c-5.18,0-7.12,2.26-7.12,6.39s1.82,5.56,6.4,5.93l6.64,.52c2,.15,2.77,.61,2.77,2.32s-.8,2.35-3.07,2.35h-5.84c-1.94,0-2.74-.67-2.92-2.44-.03-.49-.27-.76-.75-.76h-2.65c-.48,0-.75,.27-.72,.79,.21,4.31,2.29,6.48,7.03,6.48h5.87c5.21,0,7.15-2.26,7.15-6.38s-1.91-5.62-6.43-5.99c0,0,0,0,0,0Z"/>
  <path class="cls-3" d="M19.15,0H6.21C4.55,0,2.97,.67,1.82,1.87,.65,3.07,0,4.69,0,6.37v1.95C0,10.91,1.59,13.19,4.26,14.41l1.07,.45v-6.44s0-.07,0-.1v-1.95c0-.33,.16-.55,.26-.64,.16-.17,.39-.27,.63-.27h12.95c.32,0,.53,.17,.63,.27,.1,.1,.26,.32,.26,.64v4.28h5.32V6.36c0-1.7-.65-3.3-1.82-4.5C22.39,.67,20.81,0,19.15,0h0Zm1.93,15.58l-1.04-.44v6.49s0,.03,0,.05v1.95c0,.33-.16,.55-.26,.65-.16,.17-.39,.27-.63,.27H6.21c-.49,0-.89-.41-.89-.91v-4.28H0v4.28C0,27.15,2.78,30,6.21,30h12.95c1.66,0,3.24-.67,4.39-1.87,1.17-1.21,1.82-2.82,1.82-4.5v-1.95c0-2.62-1.6-4.9-4.28-6.1,0,0,0,0,0,0Z"/>
  <path class="cls-3" d="M10.39,17.34c1.86,1.91,2.29,4.32,2.29,4.32,0,0,.28-1.55,1.35-3.15,.26-.4,.57-.79,.94-1.17,1.86-1.9,4.21-2.35,4.21-2.35,0,0-1.77-.33-3.46-1.67-.26-.21-.51-.43-.75-.67-1.86-1.9-2.29-4.32-2.29-4.32,0,0-.27,1.55-1.34,3.16-.28,.42-.59,.81-.94,1.17-1.86,1.91-4.21,2.35-4.21,2.35,0,0,1.78,.33,3.47,1.67,.25,.2,.51,.43,.75,.68h0s0,0,0,0Z"/>
</svg>